<?xml version="1.0" encoding="UTF-8"?>
<!DOCTYPE svg PUBLIC "-//W3C//DTD SVG 1.1//EN" "http://www.w3.org/Graphics/SVG/1.1/DTD/svg11.dtd">
<!-- Creator: CorelDRAW -->
<svg xmlns="http://www.w3.org/2000/svg" xml:space="preserve" width="1.53152in" height="1.37289in" version="1.1" style="shape-rendering:geometricPrecision; text-rendering:geometricPrecision; image-rendering:optimizeQuality; fill-rule:evenodd; clip-rule:evenodd"
viewBox="0 0 138.29 123.97"
 xmlns:xlink="http://www.w3.org/1999/xlink"
 xmlns:xodm="http://www.corel.com/coreldraw/odm/2003">
 <defs>
  <style type="text/css">
   <![CDATA[
    .fil1 {fill:#C21D31}
    .fil0 {fill:#EF233C}
   ]]>
  </style>
 </defs>
 <g id="Layer_x0020_1">
  <metadata id="CorelCorpID_0Corel-Layer"/>
  <g id="_2230161599472">
   <path class="fil0" d="M41.84 76.15l0 26.93c0,5.77 -2.35,11 -6.12,14.77 -3.79,3.79 -9.02,6.12 -14.79,6.12 -11.54,0 -20.91,-9.35 -20.91,-20.9l0 -41.05c0.61,-9.98 13.08,-14.64 20.32,-7.42l21.49 21.52 0.02 0.02z"/>
   <path class="fil0" d="M138.29 21.5l0 36.49c-0.08,-10.43 -12.93,-15.44 -20.32,-8.07l-14.94 14.96 -4.32 4.33 -2.24 2.24 -11.7 11.7 -0.09 0.11c-0.24,0.26 -0.49,0.52 -0.75,0.78 -3.96,3.94 -9.23,5.86 -14.53,5.86l-0.24 0c-5.41,0.08 -10.78,-1.86 -14.8,-5.86 -0.32,-0.32 -0.62,-0.64 -0.91,-0.97l-11.62 -11.61 -21.49 -21.52c-7.39,-7.37 -20.24,-2.36 -20.33,8.07l0 -36.49c0,-11.41 8.89,-21.15 20.3,-21.49 5.65,-0.15 10.81,1.92 14.67,5.44l28.63 28.65 0.01 0 5.53 5.53 4.33 -4.31 29.85 -29.87c3.87,-3.52 9.03,-5.59 14.68,-5.44 11.41,0.33 20.29,10.08 20.29,21.49z"/>
   <polygon class="fil1" points="37.49,67.11 39.58,69.2 69.15,39.62 61.22,31.71 "/>
   <path class="fil0" d="M138.29 62.68l0 40.39c0,11.54 -9.37,20.9 -20.91,20.9 -5.77,0 -11,-2.33 -14.79,-6.12 -3.78,-3.78 -6.12,-9 -6.12,-14.77l0 -26.94 21.51 -21.52c7.39,-7.37 20.24,-2.36 20.32,8.07z"/>
  </g>
 </g>
</svg>
